%FSLAX25Y25*%
%MOIN*%
G70*
G01*
G75*
G04 Layer_Color=16711935*
%ADD10R,0.04331X0.33858*%
%ADD11R,0.05906X0.33858*%
G04:AMPARAMS|DCode=12|XSize=118.11mil|YSize=39.37mil|CornerRadius=0mil|HoleSize=0mil|Usage=FLASHONLY|Rotation=210.000|XOffset=0mil|YOffset=0mil|HoleType=Round|Shape=Rectangle|*
%AMROTATEDRECTD12*
4,1,4,0.04130,0.04658,0.06099,0.01248,-0.04130,-0.04658,-0.06099,-0.01248,0.04130,0.04658,0.0*
%
%ADD12ROTATEDRECTD12*%

G04:AMPARAMS|DCode=13|XSize=39.37mil|YSize=15.75mil|CornerRadius=0mil|HoleSize=0mil|Usage=FLASHONLY|Rotation=315.000|XOffset=0mil|YOffset=0mil|HoleType=Round|Shape=Rectangle|*
%AMROTATEDRECTD13*
4,1,4,-0.01949,0.00835,-0.00835,0.01949,0.01949,-0.00835,0.00835,-0.01949,-0.01949,0.00835,0.0*
%
%ADD13ROTATEDRECTD13*%

G04:AMPARAMS|DCode=14|XSize=39.37mil|YSize=15.75mil|CornerRadius=0mil|HoleSize=0mil|Usage=FLASHONLY|Rotation=225.000|XOffset=0mil|YOffset=0mil|HoleType=Round|Shape=Rectangle|*
%AMROTATEDRECTD14*
4,1,4,0.00835,0.01949,0.01949,0.00835,-0.00835,-0.01949,-0.01949,-0.00835,0.00835,0.01949,0.0*
%
%ADD14ROTATEDRECTD14*%

%ADD15R,0.02362X0.01575*%
%ADD16R,0.25590X0.23622*%
%ADD17C,0.78740*%
%ADD18R,0.02362X0.03543*%
%ADD19R,0.03543X0.02362*%
%ADD20R,0.07874X0.03937*%
%ADD21R,0.35433X0.13386*%
G04:AMPARAMS|DCode=22|XSize=23.62mil|YSize=35.43mil|CornerRadius=0mil|HoleSize=0mil|Usage=FLASHONLY|Rotation=176.000|XOffset=0mil|YOffset=0mil|HoleType=Round|Shape=Rectangle|*
%AMROTATEDRECTD22*
4,1,4,0.01302,0.01685,0.01055,-0.01850,-0.01302,-0.01685,-0.01055,0.01850,0.01302,0.01685,0.0*
%
%ADD22ROTATEDRECTD22*%

G04:AMPARAMS|DCode=23|XSize=23.62mil|YSize=35.43mil|CornerRadius=0mil|HoleSize=0mil|Usage=FLASHONLY|Rotation=135.000|XOffset=0mil|YOffset=0mil|HoleType=Round|Shape=Rectangle|*
%AMROTATEDRECTD23*
4,1,4,0.02088,0.00418,-0.00418,-0.02088,-0.02088,-0.00418,0.00418,0.02088,0.02088,0.00418,0.0*
%
%ADD23ROTATEDRECTD23*%

G04:AMPARAMS|DCode=24|XSize=23.62mil|YSize=35.43mil|CornerRadius=0mil|HoleSize=0mil|Usage=FLASHONLY|Rotation=4.000|XOffset=0mil|YOffset=0mil|HoleType=Round|Shape=Rectangle|*
%AMROTATEDRECTD24*
4,1,4,-0.01055,-0.01850,-0.01302,0.01685,0.01055,0.01850,0.01302,-0.01685,-0.01055,-0.01850,0.0*
%
%ADD24ROTATEDRECTD24*%

%ADD25R,0.03937X0.03937*%
%ADD26P,0.05568X4X379.0*%
%ADD27P,0.05568X4X65.0*%
%ADD28R,0.05512X0.04724*%
%ADD29R,0.03150X0.02165*%
G04:AMPARAMS|DCode=30|XSize=23.62mil|YSize=61.02mil|CornerRadius=0mil|HoleSize=0mil|Usage=FLASHONLY|Rotation=25.000|XOffset=0mil|YOffset=0mil|HoleType=Round|Shape=Rectangle|*
%AMROTATEDRECTD30*
4,1,4,0.00219,-0.03265,-0.02360,0.02266,-0.00219,0.03265,0.02360,-0.02266,0.00219,-0.03265,0.0*
%
%ADD30ROTATEDRECTD30*%

%ADD31R,0.00984X0.03347*%
%ADD32R,0.09370X0.06496*%
%ADD33R,0.03150X0.03150*%
%ADD34R,0.02756X0.03937*%
%ADD35R,0.03937X0.03937*%
%ADD36P,0.05568X4X109.0*%
%ADD37P,0.05568X4X335.0*%
%ADD38C,0.02000*%
%ADD39C,0.01200*%
%ADD40C,0.01000*%
%ADD41C,0.01800*%
%ADD42C,0.01500*%
%ADD43O,0.05118X0.06693*%
%ADD44R,0.00394X0.00394*%
%ADD45C,0.04000*%
%ADD46C,0.05000*%
%ADD47C,0.00500*%
%ADD48C,0.01969*%
%ADD49C,0.01181*%
%ADD50C,0.00394*%
%ADD51C,0.00600*%
%ADD52R,0.05131X0.34658*%
%ADD53R,0.06706X0.34658*%
G04:AMPARAMS|DCode=54|XSize=126.11mil|YSize=47.37mil|CornerRadius=0mil|HoleSize=0mil|Usage=FLASHONLY|Rotation=210.000|XOffset=0mil|YOffset=0mil|HoleType=Round|Shape=Rectangle|*
%AMROTATEDRECTD54*
4,1,4,0.04277,0.05204,0.06645,0.01102,-0.04277,-0.05204,-0.06645,-0.01102,0.04277,0.05204,0.0*
%
%ADD54ROTATEDRECTD54*%

G04:AMPARAMS|DCode=55|XSize=47.37mil|YSize=23.75mil|CornerRadius=0mil|HoleSize=0mil|Usage=FLASHONLY|Rotation=315.000|XOffset=0mil|YOffset=0mil|HoleType=Round|Shape=Rectangle|*
%AMROTATEDRECTD55*
4,1,4,-0.02514,0.00835,-0.00835,0.02514,0.02514,-0.00835,0.00835,-0.02514,-0.02514,0.00835,0.0*
%
%ADD55ROTATEDRECTD55*%

G04:AMPARAMS|DCode=56|XSize=47.37mil|YSize=23.75mil|CornerRadius=0mil|HoleSize=0mil|Usage=FLASHONLY|Rotation=225.000|XOffset=0mil|YOffset=0mil|HoleType=Round|Shape=Rectangle|*
%AMROTATEDRECTD56*
4,1,4,0.00835,0.02514,0.02514,0.00835,-0.00835,-0.02514,-0.02514,-0.00835,0.00835,0.02514,0.0*
%
%ADD56ROTATEDRECTD56*%

%ADD57R,0.03162X0.02375*%
%ADD58R,0.26391X0.24422*%
%ADD59C,0.79540*%
%ADD60R,0.03162X0.04343*%
%ADD61R,0.04343X0.03162*%
%ADD62R,0.08674X0.04737*%
%ADD63R,0.36233X0.14186*%
G04:AMPARAMS|DCode=64|XSize=31.62mil|YSize=43.43mil|CornerRadius=0mil|HoleSize=0mil|Usage=FLASHONLY|Rotation=176.000|XOffset=0mil|YOffset=0mil|HoleType=Round|Shape=Rectangle|*
%AMROTATEDRECTD64*
4,1,4,0.01729,0.02056,0.01426,-0.02277,-0.01729,-0.02056,-0.01426,0.02277,0.01729,0.02056,0.0*
%
%ADD64ROTATEDRECTD64*%

G04:AMPARAMS|DCode=65|XSize=31.62mil|YSize=43.43mil|CornerRadius=0mil|HoleSize=0mil|Usage=FLASHONLY|Rotation=135.000|XOffset=0mil|YOffset=0mil|HoleType=Round|Shape=Rectangle|*
%AMROTATEDRECTD65*
4,1,4,0.02654,0.00418,-0.00418,-0.02654,-0.02654,-0.00418,0.00418,0.02654,0.02654,0.00418,0.0*
%
%ADD65ROTATEDRECTD65*%

G04:AMPARAMS|DCode=66|XSize=31.62mil|YSize=43.43mil|CornerRadius=0mil|HoleSize=0mil|Usage=FLASHONLY|Rotation=4.000|XOffset=0mil|YOffset=0mil|HoleType=Round|Shape=Rectangle|*
%AMROTATEDRECTD66*
4,1,4,-0.01426,-0.02277,-0.01729,0.02056,0.01426,0.02277,0.01729,-0.02056,-0.01426,-0.02277,0.0*
%
%ADD66ROTATEDRECTD66*%

%ADD67R,0.04737X0.04737*%
%ADD68P,0.06699X4X379.0*%
%ADD69P,0.06699X4X65.0*%
%ADD70R,0.06312X0.05524*%
%ADD71R,0.03950X0.02965*%
G04:AMPARAMS|DCode=72|XSize=31.62mil|YSize=69.02mil|CornerRadius=0mil|HoleSize=0mil|Usage=FLASHONLY|Rotation=25.000|XOffset=0mil|YOffset=0mil|HoleType=Round|Shape=Rectangle|*
%AMROTATEDRECTD72*
4,1,4,0.00026,-0.03796,-0.02892,0.02460,-0.00026,0.03796,0.02892,-0.02460,0.00026,-0.03796,0.0*
%
%ADD72ROTATEDRECTD72*%

%ADD73R,0.01784X0.04147*%
%ADD74R,0.10170X0.07296*%
%ADD75R,0.03950X0.03950*%
%ADD76R,0.03556X0.04737*%
%ADD77R,0.04737X0.04737*%
%ADD78P,0.06699X4X109.0*%
%ADD79P,0.06699X4X335.0*%
%ADD80O,0.05918X0.07493*%
%ADD81C,0.00800*%
%ADD82R,0.01194X0.01194*%
%ADD83C,0.04800*%
%ADD84C,0.05800*%
%ADD85C,0.00100*%
%ADD86C,0.00197*%
G54D85*
X281140Y256499D02*
G03*
X312068Y158343I118860J-16499D01*
G01*
X271146Y257224D02*
G03*
X307719Y148435I128854J-17224D01*
G01*
X514669Y275372D02*
G03*
X454400Y346961I-114669J-35372D01*
G01*
X487932Y158343D02*
G03*
X518252Y260409I-87932J81657D01*
G01*
X438620Y353616D02*
G03*
X284415Y272252I-38620J-113616D01*
G01*
X524454Y277567D02*
G03*
X459392Y355640I-124454J-37567D01*
G01*
X442880Y362724D02*
G03*
X274893Y275329I-42880J-122724D01*
G01*
X492249Y148402D02*
G03*
X528420Y260209I-92249J91598D01*
G01*
X274829Y275347D02*
G03*
X284273Y272291I4537J-2102D01*
G01*
X281211Y256489D02*
G03*
X271341Y257198I-4925J496D01*
G01*
X330602Y148425D02*
G03*
X331800Y158280I1198J4854D01*
G01*
X348924Y158276D02*
G03*
X348100Y148416I-574J-4917D01*
G01*
X452479Y148428D02*
G03*
X453676Y158283I1198J4854D01*
G01*
X470800Y158280D02*
G03*
X469976Y148419I-574J-4917D01*
G01*
X514600Y275900D02*
G03*
X524347Y277543I4920J546D01*
G01*
X528320Y260264D02*
G03*
X518449Y259214I-4999J75D01*
G01*
X459335Y355528D02*
G03*
X454382Y346925I-2999J-4000D01*
G01*
X438621Y353619D02*
G03*
X442819Y362551I2450J4301D01*
G01*
X434336Y112920D02*
Y148353D01*
X452478D01*
X469976D02*
X492250D01*
X348100Y148416D02*
X365664Y148416D01*
Y112920D02*
X434336D01*
X307700Y148416D02*
X330600Y148416D01*
X365664Y112920D02*
Y148416D01*
X431496Y158280D02*
X453676Y158280D01*
X348924Y158280D02*
X368504D01*
X312131D02*
X331800D01*
X470800D02*
X487869D01*
X487932Y158343D01*
X312068D02*
X312131Y158280D01*
G54D86*
X375590Y122846D02*
X424409D01*
X375590D02*
Y158280D01*
X424409Y122846D02*
Y158280D01*
X368504D02*
X375590D01*
X424409D02*
X431496D01*
M02*
