M48
;Layer_Color=9474304
;FILE_FORMAT=2:4
INCH,TZ
;TYPE=PLATED
T1F00S00C0.0200
T2F00S00C0.0280
T3F00S00C0.0394
T4F00S00C0.1181
;TYPE=NON_PLATED
T5F00S00C0.0150
%
T01
X39580Y15560
X40410Y15540
X41290Y15510
X48420Y16950
X48180Y17810
X47720Y19050
X46900Y18570
X48190Y20540
X48760Y20580
X49670Y20540
X50160
X50660Y19520
X50560Y22110
X48180Y22050
X48110Y22590
X51150Y24980
X49170Y27730
X49360Y28570
X48600Y29050
X46960Y27750
X46420Y28290
X46110Y28700
X46800Y29130
X46460Y29950
X45290Y30480
X43830Y30090
X42843Y30050
X41960Y28980
X41780Y27289
X42760Y27250
X43270Y27180
X44880Y27770
X45790Y27730
X45600Y26360
X46180Y24960
X46070Y23170
X45210Y20030
X45480Y19080
X46820Y17510
X36910Y18450
X35160Y17140
X35840Y16390
X33510Y18600
X33500Y19090
X33720Y20050
X34030Y23110
X34620Y23090
X31710Y22300
X31310Y21400
X31500Y25180
X31400Y27570
X31643Y29811
X32510Y30680
X33980Y30010
X33710Y29310
X34050Y28890
X34660Y28810
X35310Y28460
X35470Y27360
X34050Y26690
X34040Y28110
X36190Y29170
X35990Y30800
X38890Y30730
X39070Y30090
X38320Y28930
X40470Y29520
X40400Y25190
X32220Y17470
X29570Y19690
X28860Y22390
X30730Y25500
X31160Y25860
X30435Y28500
X33690Y31860
X36110Y32020
X35990Y31340
X38210Y32150
X38280Y32650
X39060Y33210
X39600Y33060
X39920Y34070
X39080Y34350
X39360Y35660
X37450Y34910
X42800Y34640
X42830Y33380
X41580Y32740
X42300Y31760
X40450Y31270
X46660Y31580
X47730Y32380
T02
X50500Y24000
X44290Y26180
X33160Y27360
X29820Y24040
X33420Y32400
X35560Y31990
X36060Y34100
X46090Y33640
X46120Y32250
T03
X47360Y26150
X47360Y27150
X48360
X48360Y26150
X46360Y26150
X46360Y27150
T04
X50520Y26480
X29500
T05
X51833Y26319
X51770Y26592
X51703Y26884
X51635Y27176
X46638Y15750
X46338
X46038
X45758
X34450Y15750
X34150
X33850
X33570
X28108Y25997
X28166Y26292
X28223Y26586
X28276Y26861
X44300Y35260
X44576Y35143
X44852Y35026
X45110Y34917
M30
