%FSLAX25Y25*%
%MOIN*%
G70*
G01*
G75*
G04 Layer_Color=8388736*
%ADD10R,0.04331X0.33858*%
%ADD11R,0.05906X0.33858*%
G04:AMPARAMS|DCode=12|XSize=118.11mil|YSize=39.37mil|CornerRadius=0mil|HoleSize=0mil|Usage=FLASHONLY|Rotation=210.000|XOffset=0mil|YOffset=0mil|HoleType=Round|Shape=Rectangle|*
%AMROTATEDRECTD12*
4,1,4,0.04130,0.04658,0.06099,0.01248,-0.04130,-0.04658,-0.06099,-0.01248,0.04130,0.04658,0.0*
%
%ADD12ROTATEDRECTD12*%

G04:AMPARAMS|DCode=13|XSize=39.37mil|YSize=15.75mil|CornerRadius=0mil|HoleSize=0mil|Usage=FLASHONLY|Rotation=315.000|XOffset=0mil|YOffset=0mil|HoleType=Round|Shape=Rectangle|*
%AMROTATEDRECTD13*
4,1,4,-0.01949,0.00835,-0.00835,0.01949,0.01949,-0.00835,0.00835,-0.01949,-0.01949,0.00835,0.0*
%
%ADD13ROTATEDRECTD13*%

G04:AMPARAMS|DCode=14|XSize=39.37mil|YSize=15.75mil|CornerRadius=0mil|HoleSize=0mil|Usage=FLASHONLY|Rotation=225.000|XOffset=0mil|YOffset=0mil|HoleType=Round|Shape=Rectangle|*
%AMROTATEDRECTD14*
4,1,4,0.00835,0.01949,0.01949,0.00835,-0.00835,-0.01949,-0.01949,-0.00835,0.00835,0.01949,0.0*
%
%ADD14ROTATEDRECTD14*%

%ADD15R,0.02362X0.01575*%
%ADD16R,0.25590X0.23622*%
%ADD17C,0.78740*%
%ADD18R,0.02362X0.03543*%
%ADD19R,0.03543X0.02362*%
%ADD20R,0.07874X0.03937*%
%ADD21R,0.35433X0.13386*%
G04:AMPARAMS|DCode=22|XSize=23.62mil|YSize=35.43mil|CornerRadius=0mil|HoleSize=0mil|Usage=FLASHONLY|Rotation=176.000|XOffset=0mil|YOffset=0mil|HoleType=Round|Shape=Rectangle|*
%AMROTATEDRECTD22*
4,1,4,0.01302,0.01685,0.01055,-0.01850,-0.01302,-0.01685,-0.01055,0.01850,0.01302,0.01685,0.0*
%
%ADD22ROTATEDRECTD22*%

G04:AMPARAMS|DCode=23|XSize=23.62mil|YSize=35.43mil|CornerRadius=0mil|HoleSize=0mil|Usage=FLASHONLY|Rotation=135.000|XOffset=0mil|YOffset=0mil|HoleType=Round|Shape=Rectangle|*
%AMROTATEDRECTD23*
4,1,4,0.02088,0.00418,-0.00418,-0.02088,-0.02088,-0.00418,0.00418,0.02088,0.02088,0.00418,0.0*
%
%ADD23ROTATEDRECTD23*%

G04:AMPARAMS|DCode=24|XSize=23.62mil|YSize=35.43mil|CornerRadius=0mil|HoleSize=0mil|Usage=FLASHONLY|Rotation=4.000|XOffset=0mil|YOffset=0mil|HoleType=Round|Shape=Rectangle|*
%AMROTATEDRECTD24*
4,1,4,-0.01055,-0.01850,-0.01302,0.01685,0.01055,0.01850,0.01302,-0.01685,-0.01055,-0.01850,0.0*
%
%ADD24ROTATEDRECTD24*%

%ADD25R,0.03937X0.03937*%
%ADD26P,0.05568X4X379.0*%
%ADD27P,0.05568X4X65.0*%
%ADD28R,0.05512X0.04724*%
%ADD29R,0.03150X0.02165*%
G04:AMPARAMS|DCode=30|XSize=23.62mil|YSize=61.02mil|CornerRadius=0mil|HoleSize=0mil|Usage=FLASHONLY|Rotation=25.000|XOffset=0mil|YOffset=0mil|HoleType=Round|Shape=Rectangle|*
%AMROTATEDRECTD30*
4,1,4,0.00219,-0.03265,-0.02360,0.02266,-0.00219,0.03265,0.02360,-0.02266,0.00219,-0.03265,0.0*
%
%ADD30ROTATEDRECTD30*%

%ADD31R,0.00984X0.03347*%
%ADD32R,0.09370X0.06496*%
%ADD33R,0.03150X0.03150*%
%ADD34R,0.02756X0.03937*%
%ADD35R,0.03937X0.03937*%
%ADD36P,0.05568X4X109.0*%
%ADD37P,0.05568X4X335.0*%
%ADD38C,0.02000*%
%ADD39C,0.01200*%
%ADD40C,0.01000*%
%ADD41C,0.01800*%
%ADD42C,0.01500*%
%ADD43O,0.05118X0.06693*%
%ADD44R,0.00394X0.00394*%
%ADD45C,0.04000*%
%ADD46C,0.05000*%
%ADD47C,0.00500*%
%ADD48C,0.01969*%
%ADD49C,0.01181*%
%ADD50C,0.00394*%
%ADD51C,0.00600*%
%ADD52R,0.05131X0.34658*%
%ADD53R,0.06706X0.34658*%
G04:AMPARAMS|DCode=54|XSize=126.11mil|YSize=47.37mil|CornerRadius=0mil|HoleSize=0mil|Usage=FLASHONLY|Rotation=210.000|XOffset=0mil|YOffset=0mil|HoleType=Round|Shape=Rectangle|*
%AMROTATEDRECTD54*
4,1,4,0.04277,0.05204,0.06645,0.01102,-0.04277,-0.05204,-0.06645,-0.01102,0.04277,0.05204,0.0*
%
%ADD54ROTATEDRECTD54*%

G04:AMPARAMS|DCode=55|XSize=47.37mil|YSize=23.75mil|CornerRadius=0mil|HoleSize=0mil|Usage=FLASHONLY|Rotation=315.000|XOffset=0mil|YOffset=0mil|HoleType=Round|Shape=Rectangle|*
%AMROTATEDRECTD55*
4,1,4,-0.02514,0.00835,-0.00835,0.02514,0.02514,-0.00835,0.00835,-0.02514,-0.02514,0.00835,0.0*
%
%ADD55ROTATEDRECTD55*%

G04:AMPARAMS|DCode=56|XSize=47.37mil|YSize=23.75mil|CornerRadius=0mil|HoleSize=0mil|Usage=FLASHONLY|Rotation=225.000|XOffset=0mil|YOffset=0mil|HoleType=Round|Shape=Rectangle|*
%AMROTATEDRECTD56*
4,1,4,0.00835,0.02514,0.02514,0.00835,-0.00835,-0.02514,-0.02514,-0.00835,0.00835,0.02514,0.0*
%
%ADD56ROTATEDRECTD56*%

%ADD57R,0.03162X0.02375*%
%ADD58R,0.26391X0.24422*%
%ADD59C,0.79540*%
%ADD60R,0.03162X0.04343*%
%ADD61R,0.04343X0.03162*%
%ADD62R,0.08674X0.04737*%
%ADD63R,0.36233X0.14186*%
G04:AMPARAMS|DCode=64|XSize=31.62mil|YSize=43.43mil|CornerRadius=0mil|HoleSize=0mil|Usage=FLASHONLY|Rotation=176.000|XOffset=0mil|YOffset=0mil|HoleType=Round|Shape=Rectangle|*
%AMROTATEDRECTD64*
4,1,4,0.01729,0.02056,0.01426,-0.02277,-0.01729,-0.02056,-0.01426,0.02277,0.01729,0.02056,0.0*
%
%ADD64ROTATEDRECTD64*%

G04:AMPARAMS|DCode=65|XSize=31.62mil|YSize=43.43mil|CornerRadius=0mil|HoleSize=0mil|Usage=FLASHONLY|Rotation=135.000|XOffset=0mil|YOffset=0mil|HoleType=Round|Shape=Rectangle|*
%AMROTATEDRECTD65*
4,1,4,0.02654,0.00418,-0.00418,-0.02654,-0.02654,-0.00418,0.00418,0.02654,0.02654,0.00418,0.0*
%
%ADD65ROTATEDRECTD65*%

G04:AMPARAMS|DCode=66|XSize=31.62mil|YSize=43.43mil|CornerRadius=0mil|HoleSize=0mil|Usage=FLASHONLY|Rotation=4.000|XOffset=0mil|YOffset=0mil|HoleType=Round|Shape=Rectangle|*
%AMROTATEDRECTD66*
4,1,4,-0.01426,-0.02277,-0.01729,0.02056,0.01426,0.02277,0.01729,-0.02056,-0.01426,-0.02277,0.0*
%
%ADD66ROTATEDRECTD66*%

%ADD67R,0.04737X0.04737*%
%ADD68P,0.06699X4X379.0*%
%ADD69P,0.06699X4X65.0*%
%ADD70R,0.06312X0.05524*%
%ADD71R,0.03950X0.02965*%
G04:AMPARAMS|DCode=72|XSize=31.62mil|YSize=69.02mil|CornerRadius=0mil|HoleSize=0mil|Usage=FLASHONLY|Rotation=25.000|XOffset=0mil|YOffset=0mil|HoleType=Round|Shape=Rectangle|*
%AMROTATEDRECTD72*
4,1,4,0.00026,-0.03796,-0.02892,0.02460,-0.00026,0.03796,0.02892,-0.02460,0.00026,-0.03796,0.0*
%
%ADD72ROTATEDRECTD72*%

%ADD73R,0.01784X0.04147*%
%ADD74R,0.10170X0.07296*%
%ADD75R,0.03950X0.03950*%
%ADD76R,0.03556X0.04737*%
%ADD77R,0.04737X0.04737*%
%ADD78P,0.06699X4X109.0*%
%ADD79P,0.06699X4X335.0*%
%ADD80O,0.05918X0.07493*%
%ADD81C,0.00800*%
%ADD82R,0.01194X0.01194*%
%ADD83C,0.04800*%
%ADD84C,0.05800*%
G54D52*
X395866Y141350D02*
D03*
X404134D02*
D03*
G54D53*
X413189D02*
D03*
X386811D02*
D03*
G54D54*
X457999Y177742D02*
D03*
X487833Y194967D02*
D03*
X495707Y181329D02*
D03*
X465873Y164104D02*
D03*
G54D55*
X379578Y310533D02*
D03*
X381805Y312760D02*
D03*
X384032Y314987D02*
D03*
X386259Y317214D02*
D03*
X388486Y319441D02*
D03*
X390713Y321668D02*
D03*
X392940Y323895D02*
D03*
X395167Y326122D02*
D03*
X420222Y301067D02*
D03*
X417995Y298840D02*
D03*
X415768Y296613D02*
D03*
X413541Y294386D02*
D03*
X411314Y292159D02*
D03*
X409087Y289932D02*
D03*
X406860Y287705D02*
D03*
X404633Y285478D02*
D03*
G54D56*
X404633Y326122D02*
D03*
X406860Y323895D02*
D03*
X409087Y321668D02*
D03*
X411314Y319441D02*
D03*
X413541Y317214D02*
D03*
X415768Y314987D02*
D03*
X417995Y312760D02*
D03*
X420222Y310533D02*
D03*
X395167Y285478D02*
D03*
X392940Y287705D02*
D03*
X390713Y289932D02*
D03*
X388486Y292159D02*
D03*
X386259Y294386D02*
D03*
X384032Y296613D02*
D03*
X381805Y298840D02*
D03*
X379578Y301067D02*
D03*
G54D57*
X328495Y187060D02*
D03*
X328306Y194540D02*
D03*
X340305D02*
D03*
Y187060D02*
D03*
Y190800D02*
D03*
G54D58*
X337205Y215400D02*
D03*
X462795D02*
D03*
G54D59*
X400000D02*
D03*
G54D60*
X286347Y216800D02*
D03*
X292253D02*
D03*
X304747Y220700D02*
D03*
X310653D02*
D03*
X335747Y178900D02*
D03*
X341653D02*
D03*
X509953Y213200D02*
D03*
X504047D02*
D03*
X474853Y282900D02*
D03*
X468947D02*
D03*
X431153Y283300D02*
D03*
X425247D02*
D03*
X443253Y324300D02*
D03*
X437347D02*
D03*
X451853Y317300D02*
D03*
X445947D02*
D03*
X376053Y340500D02*
D03*
X370147D02*
D03*
X343447Y320500D02*
D03*
X349353D02*
D03*
X340547Y305800D02*
D03*
X346453D02*
D03*
X373447Y289900D02*
D03*
X379353D02*
D03*
X341047Y276000D02*
D03*
X346953D02*
D03*
X324453Y275200D02*
D03*
X318547D02*
D03*
X398547Y336000D02*
D03*
X404453D02*
D03*
G54D61*
X305100Y174147D02*
D03*
Y180053D02*
D03*
X311500Y182253D02*
D03*
Y176347D02*
D03*
X318100Y177847D02*
D03*
Y183753D02*
D03*
X330000Y171753D02*
D03*
Y165847D02*
D03*
X345400Y195653D02*
D03*
Y189747D02*
D03*
X322300Y188547D02*
D03*
Y194453D02*
D03*
X507600Y201447D02*
D03*
Y207353D02*
D03*
X454700Y336953D02*
D03*
Y331047D02*
D03*
X382600Y335747D02*
D03*
Y341653D02*
D03*
X372200Y332953D02*
D03*
Y327047D02*
D03*
X359100Y328047D02*
D03*
Y333953D02*
D03*
X365900Y279953D02*
D03*
Y274047D02*
D03*
X390000Y279953D02*
D03*
Y274047D02*
D03*
G54D62*
X340000Y243937D02*
D03*
Y236063D02*
D03*
X460000D02*
D03*
Y243937D02*
D03*
G54D63*
X315984Y240000D02*
D03*
X484016D02*
D03*
G54D64*
X475913Y300473D02*
D03*
X470022Y300885D02*
D03*
X470378Y305973D02*
D03*
X476269Y305561D02*
D03*
G54D65*
X442288Y274612D02*
D03*
X438112Y278788D02*
D03*
X421712Y326288D02*
D03*
X425888Y322112D02*
D03*
X368612Y302388D02*
D03*
X372788Y298212D02*
D03*
X363412Y298088D02*
D03*
X367588Y293912D02*
D03*
G54D66*
X314815Y286070D02*
D03*
X308924Y285658D02*
D03*
X313665Y292405D02*
D03*
X319556Y292817D02*
D03*
X323826Y293316D02*
D03*
X329717Y293728D02*
D03*
G54D67*
X352426Y259760D02*
D03*
Y267240D02*
D03*
X360300Y263500D02*
D03*
X404581Y352181D02*
D03*
Y344701D02*
D03*
X396707Y348441D02*
D03*
G54D68*
X307469Y303818D02*
D03*
X300656Y298380D02*
D03*
X307379Y295101D02*
D03*
G54D69*
X493643Y304927D02*
D03*
X492822Y296249D02*
D03*
X499851Y298807D02*
D03*
G54D70*
X373869Y273950D02*
D03*
X382531D02*
D03*
Y280250D02*
D03*
X373869D02*
D03*
G54D71*
X336182Y166900D02*
D03*
Y170837D02*
D03*
Y162963D02*
D03*
X346418D02*
D03*
Y170837D02*
D03*
X341382Y329263D02*
D03*
Y337137D02*
D03*
X351618D02*
D03*
Y329263D02*
D03*
Y333200D02*
D03*
X437882Y332063D02*
D03*
Y339937D02*
D03*
X448118D02*
D03*
Y332063D02*
D03*
Y336000D02*
D03*
G54D72*
X299695Y186196D02*
D03*
X304227Y188310D02*
D03*
X308758Y190423D02*
D03*
X313290Y192536D02*
D03*
X304305Y211804D02*
D03*
X299773Y209690D02*
D03*
X295242Y207577D02*
D03*
X290710Y205464D02*
D03*
G54D73*
X498237Y223202D02*
D03*
X496269D02*
D03*
X494300D02*
D03*
X492332D02*
D03*
X490363D02*
D03*
Y210998D02*
D03*
X492332D02*
D03*
X494300D02*
D03*
X496269D02*
D03*
X498237D02*
D03*
G54D74*
X494300Y217100D02*
D03*
G54D75*
X340600Y311100D02*
D03*
X346505D02*
D03*
X453300Y310700D02*
D03*
X459205D02*
D03*
X397000Y275300D02*
D03*
X402906D02*
D03*
G54D76*
X317338Y168756D02*
D03*
Y163244D02*
D03*
X322062D02*
D03*
Y168756D02*
D03*
G54D77*
X390512Y349000D02*
D03*
X379488D02*
D03*
X409488Y340800D02*
D03*
X420512D02*
D03*
G54D78*
X296380Y281500D02*
D03*
X301213Y291407D02*
D03*
X321734Y314777D02*
D03*
X316902Y304869D02*
D03*
G54D79*
X502102Y281490D02*
D03*
X498332Y291849D02*
D03*
X480612Y317322D02*
D03*
X484382Y306963D02*
D03*
G54D80*
X463600Y261500D02*
D03*
X473600D02*
D03*
X483600Y261500D02*
D03*
X483600Y271500D02*
D03*
X473600D02*
D03*
X463600D02*
D03*
G54D81*
X335700Y157500D02*
D03*
X338500D02*
D03*
X341500D02*
D03*
X344500D02*
D03*
X466376Y157503D02*
D03*
X463376D02*
D03*
X460376D02*
D03*
X457576D02*
D03*
X516352Y271764D02*
D03*
X517027Y268841D02*
D03*
X517701Y265918D02*
D03*
X518331Y263190D02*
D03*
X442996Y352605D02*
D03*
X445758Y351433D02*
D03*
X448519Y350260D02*
D03*
X451097Y349166D02*
D03*
X281085Y259973D02*
D03*
X281657Y262918D02*
D03*
X282230Y265863D02*
D03*
X282764Y268612D02*
D03*
G54D82*
X505200Y264800D02*
D03*
X295000D02*
D03*
G54D83*
X438300Y300900D02*
D03*
X428430Y300497D02*
D03*
X452900Y304800D02*
D03*
X415800Y327400D02*
D03*
X448800Y277700D02*
D03*
X428300Y333800D02*
D03*
X393600Y356600D02*
D03*
X399200Y340700D02*
D03*
X396000Y330600D02*
D03*
X316426Y298112D02*
D03*
X353100Y284600D02*
D03*
X461100Y287000D02*
D03*
X427600Y272500D02*
D03*
X481100Y225900D02*
D03*
X432700Y271800D02*
D03*
X505600Y221100D02*
D03*
X307300Y255000D02*
D03*
X311600Y258600D02*
D03*
X487600Y205800D02*
D03*
X340300Y231100D02*
D03*
X346200Y230900D02*
D03*
X501600Y205400D02*
D03*
X460700Y231700D02*
D03*
X461800Y249600D02*
D03*
X395800Y155600D02*
D03*
X404100Y155400D02*
D03*
X412900Y155100D02*
D03*
X313100Y214000D02*
D03*
X335000Y190900D02*
D03*
X361100Y320200D02*
D03*
X481800Y220500D02*
D03*
X417800Y272891D02*
D03*
X340500Y266900D02*
D03*
X419600Y289800D02*
D03*
X423000Y317600D02*
D03*
X466600Y315800D02*
D03*
X374500Y349100D02*
D03*
X390600Y332100D02*
D03*
X382800Y326500D02*
D03*
X339800Y300100D02*
D03*
X336900Y318600D02*
D03*
X382100Y321500D02*
D03*
X337205Y200495D02*
D03*
X404700Y295200D02*
D03*
X428000Y346400D02*
D03*
X404500Y312700D02*
D03*
X456000Y263596D02*
D03*
X361900Y291700D02*
D03*
X337100Y293100D02*
D03*
X383200Y289300D02*
D03*
X354700Y273600D02*
D03*
X464200Y282900D02*
D03*
X469600Y277500D02*
D03*
X295700Y196900D02*
D03*
X288600Y223900D02*
D03*
X317100Y223000D02*
D03*
X315000Y251800D02*
D03*
X359900Y313400D02*
D03*
Y308000D02*
D03*
X457900Y277300D02*
D03*
X452100Y200300D02*
D03*
X390700Y300900D02*
D03*
X390800Y343500D02*
D03*
X388900Y307300D02*
D03*
X346600Y288100D02*
D03*
X340500Y288900D02*
D03*
X340400Y281100D02*
D03*
X468000Y291300D02*
D03*
X477300Y323800D02*
D03*
X464600Y299500D02*
D03*
X486000Y290500D02*
D03*
X493600Y285700D02*
D03*
X325100Y306800D02*
D03*
X304354Y285000D02*
D03*
X314000Y275700D02*
D03*
X322200Y174700D02*
D03*
X351600Y171400D02*
D03*
X358400Y163900D02*
D03*
X369100Y184500D02*
D03*
X335100Y186000D02*
D03*
X454800Y190800D02*
D03*
X481900Y205400D02*
D03*
X496700D02*
D03*
X481800Y178100D02*
D03*
X506600Y195200D02*
D03*
X477200Y190500D02*
D03*
X468200Y175100D02*
D03*
X469000Y185700D02*
D03*
X484200Y169500D02*
D03*
X404000Y251900D02*
D03*
X491700Y277300D02*
D03*
X511500Y249800D02*
D03*
G54D84*
X461200Y322500D02*
D03*
X355600Y319900D02*
D03*
X360600Y341000D02*
D03*
X460900Y336400D02*
D03*
X298200Y240400D02*
D03*
X442900Y261800D02*
D03*
X505000Y240000D02*
D03*
X331600Y273600D02*
D03*
X334200Y324000D02*
D03*
M02*
